<svg width="161" height="41" viewBox="0 0 161 41" fill="none" xmlns="http://www.w3.org/2000/svg">
<path fill-rule="evenodd" clip-rule="evenodd" d="M25.6085 8.79319V3.1346C25.6085 3.01792 25.5123 2.922 25.3953 2.9233H9.0241C8.34211 2.9233 7.71342 2.68994 7.21459 2.29845C6.58199 1.80193 6.15981 1.05134 6.10266 0.199651C6.09486 0.0881624 6.00264 0 5.89093 0H0.215624C0.0948176 0 -8.75975e-06 0.0998134 0.00258923 0.219085C0.0259712 1.16413 0.193541 2.07158 0.487115 2.9207C0.933968 4.21964 1.6692 5.38507 2.61747 6.3392C2.97209 6.69699 3.35788 7.02497 3.76837 7.31924C4.47503 7.82482 5.25701 8.23185 6.09616 8.51837C6.45858 8.64281 6.83269 8.74521 7.21459 8.823C7.79913 8.94227 8.40448 9.00449 9.0241 9.00449H25.3953C25.5137 9.00449 25.6085 8.90986 25.6085 8.79319ZM7.24448 10.2983C6.53265 11.045 6.09488 12.0535 6.09488 13.1632V31.7975C6.09488 31.9143 6.00004 32.0088 5.88183 32.0088H0.213035C0.0961255 32.0088 0 31.9143 0 31.7975V13.1632C0 11.0385 0.652095 9.06284 1.76663 7.42424C1.84067 7.31665 1.99266 7.29848 2.08748 7.38665C2.37326 7.65368 2.67591 7.90517 2.99418 8.13982C3.03446 8.16964 3.07473 8.19945 3.11497 8.22799C3.91905 8.80486 4.80107 9.25728 5.73117 9.57618C6.13773 9.71491 6.56122 9.83026 6.99118 9.91842C7.03795 9.9288 7.0834 9.93786 7.13017 9.94564C7.29515 9.97675 7.3588 10.1777 7.24448 10.2983ZM25.6082 10.3346V15.9932C25.6082 16.1098 25.5135 16.2045 25.3953 16.2045H14.9864C14.0602 16.2045 13.3094 16.9538 13.3094 17.8781V31.7975C13.3094 31.9143 13.2146 32.0088 13.0963 32.0088H7.42625C7.30933 32.0088 7.21322 31.9143 7.21322 31.7975V13.3758C7.21322 11.5791 8.67329 10.122 10.4737 10.122H25.3953C25.5123 10.122 25.6082 10.2179 25.6082 10.3346Z" fill="white"/>
<path d="M42.7208 14.5834H47.192V18.8335H42.7208V32.0796H37.6558V18.8335H35.2107V14.5834H37.6558V13.8042C37.6558 11.443 38.2846 9.62493 39.5421 8.34991C40.8228 7.05126 42.5577 6.40195 44.7468 6.40195C45.9344 6.40195 46.8776 6.59083 47.5762 6.96863V11.3604C47.0173 11.0534 46.3652 10.8999 45.6201 10.8999C44.8049 10.8999 44.118 11.1242 43.5592 11.5729C43.0003 12.0215 42.7208 12.7771 42.7208 13.8396V14.5834ZM59.9025 19.6126C59.6231 19.471 59.1923 19.4001 58.6101 19.4001C57.1897 19.4001 56.0835 19.896 55.2917 20.8876C54.5 21.8793 54.104 23.2369 54.104 24.9606V32.0796H49.039V14.5834H54.0691V17.4522C54.535 16.4369 55.1987 15.6459 56.0601 15.0792C56.9218 14.4889 57.9115 14.1938 59.0292 14.1938C59.2157 14.1938 59.3904 14.2056 59.5532 14.2292C59.7397 14.2528 59.856 14.2764 59.9025 14.3V19.6126ZM76.6254 30.9108C75.7871 31.4066 74.809 31.7962 73.6912 32.0796C72.5968 32.3866 71.3627 32.54 69.9885 32.54C68.5215 32.54 67.1941 32.3157 66.0064 31.867C64.8188 31.3949 63.8176 30.7574 63.0024 29.9545C62.1874 29.1282 61.5587 28.1482 61.1161 27.0149C60.6738 25.8578 60.4524 24.6065 60.4524 23.2606C60.4524 21.9619 60.662 20.7577 61.0812 19.6481C61.5237 18.5147 62.1291 17.5466 62.8976 16.7438C63.6894 15.9174 64.621 15.2799 65.6921 14.8313C66.7633 14.3591 67.9394 14.1229 69.2201 14.1229C70.5474 14.1229 71.7235 14.3473 72.7481 14.7959C73.796 15.2209 74.6811 15.8348 75.4028 16.6376C76.1482 17.4404 76.7071 18.4085 77.0795 19.5418C77.4755 20.6514 77.6733 21.8793 77.6733 23.2252C77.6733 23.4848 77.6618 23.7564 77.6384 24.0398C77.6153 24.3231 77.5919 24.5711 77.5685 24.7836H65.4825C65.6689 25.7989 66.1929 26.6253 67.0544 27.2628C67.9161 27.9003 69.0803 28.219 70.5474 28.219C71.5954 28.219 72.6084 28.0657 73.5864 27.7586C74.5645 27.4281 75.5775 26.9203 76.6254 26.2357V30.9108ZM72.783 21.3835C72.69 20.3918 72.3173 19.6009 71.6652 19.0106C71.0133 18.4203 70.1866 18.1251 69.1851 18.1251C68.1839 18.1251 67.3338 18.4439 66.6352 19.0814C65.9366 19.7189 65.5292 20.4863 65.4126 21.3835H72.783ZM95.1578 30.9108C94.3195 31.4066 93.3414 31.7962 92.2237 32.0796C91.1292 32.3866 89.8949 32.54 88.521 32.54C87.0539 32.54 85.7265 32.3157 84.5389 31.867C83.3512 31.3949 82.3498 30.7574 81.5348 29.9545C80.7199 29.1282 80.0911 28.1482 79.6486 27.0149C79.206 25.8578 78.9849 24.6065 78.9849 23.2606C78.9849 21.9619 79.1945 20.7577 79.6136 19.6481C80.0562 18.5147 80.6616 17.5466 81.43 16.7438C82.2219 15.9174 83.1532 15.2799 84.2245 14.8313C85.2958 14.3591 86.4716 14.1229 87.7525 14.1229C89.0799 14.1229 90.256 14.3473 91.2805 14.7959C92.3284 15.2209 93.2133 15.8348 93.9353 16.6376C94.6804 17.4404 95.2393 18.4085 95.6119 19.5418C96.0077 20.6514 96.2058 21.8793 96.2058 23.2252C96.2058 23.4848 96.1942 23.7564 96.1708 24.0398C96.1475 24.3231 96.1243 24.5711 96.101 24.7836H84.0149C84.2011 25.7989 84.7251 26.6253 85.5868 27.2628C86.4485 27.9003 87.6128 28.219 89.0799 28.219C90.1278 28.219 91.1408 28.0657 92.1189 27.7586C93.0969 27.4281 94.1099 26.9203 95.1578 26.2357V30.9108ZM91.3154 21.3835C91.2222 20.3918 90.8498 19.6009 90.1977 19.0106C89.5455 18.4203 88.719 18.1251 87.7176 18.1251C86.7162 18.1251 85.8662 18.4439 85.1676 19.0814C84.469 19.7189 84.0614 20.4863 83.9451 21.3835H91.3154ZM113.942 32.0796L110.344 21.3835L106.746 32.0796H102.485L96.4069 14.5834H101.612L104.965 25.1731L108.528 14.5834H112.265L115.793 25.1731L119.217 14.5834H124.282L118.169 32.0796H113.942ZM135.338 32.0796L135.268 29.8837C134.756 30.7808 134.046 31.4538 133.138 31.9025C132.229 32.3275 131.251 32.54 130.203 32.54C129.388 32.54 128.643 32.41 127.968 32.1504C127.316 31.9142 126.757 31.572 126.291 31.1233C125.825 30.6746 125.453 30.1433 125.173 29.5295C124.917 28.892 124.789 28.1836 124.789 27.4044C124.789 24.146 126.931 22.1981 131.216 21.5606L135.129 20.9939V20.7814C135.129 20.0495 134.837 19.4828 134.255 19.0814C133.696 18.68 132.823 18.4793 131.635 18.4793C130.518 18.4793 129.47 18.6918 128.492 19.1168C127.514 19.5182 126.629 20.0849 125.837 20.8168V15.8938C126.582 15.3743 127.49 14.9494 128.562 14.6188C129.633 14.2882 130.832 14.1229 132.159 14.1229C134.674 14.1229 136.619 14.7132 137.993 15.8938C139.367 17.0744 140.054 18.8099 140.054 21.1001V32.0796H135.338ZM129.61 26.9794C129.633 27.4753 129.819 27.8766 130.168 28.1836C130.541 28.467 131.018 28.6086 131.601 28.6086C132.672 28.6086 133.522 28.2662 134.151 27.5815C134.802 26.8969 135.129 26.0586 135.129 25.0669V24.4648L132.09 24.9606C130.436 25.2203 129.61 25.8932 129.61 26.9794ZM144.997 40.0131C144.322 40.0131 143.739 39.9422 143.25 39.8006C142.785 39.6826 142.4 39.5409 142.097 39.3755V35.0546C142.68 35.338 143.332 35.4796 144.054 35.4796C144.799 35.4796 145.427 35.3025 145.94 34.9484C146.475 34.6179 146.918 34.0275 147.267 33.1775L147.756 32.0441L140.77 14.5834H146.149L150.446 26.3065L154.812 14.5834H160.052L152.332 33.6025C151.424 35.8692 150.376 37.4984 149.188 38.4901C148.024 39.5055 146.627 40.0131 144.997 40.0131Z" fill="white"/>
</svg>
